<?xml version="1.0" encoding="UTF-8"?>
<!DOCTYPE svg PUBLIC "-//W3C//DTD SVG 1.1//EN" "http://www.w3.org/Graphics/SVG/1.1/DTD/svg11.dtd">
<!-- Creator: CorelDRAW -->
<svg xmlns="http://www.w3.org/2000/svg" xml:space="preserve" width="53.9578mm" height="11.7713mm" version="1.1" style="shape-rendering:geometricPrecision; text-rendering:geometricPrecision; image-rendering:optimizeQuality; fill-rule:evenodd; clip-rule:evenodd"
viewBox="0 0 75.86 16.55"
 xmlns:xlink="http://www.w3.org/1999/xlink"
 xmlns:xodm="http://www.corel.com/coreldraw/odm/2003">
 <defs>
  <style type="text/css">
   <![CDATA[
    .fil2 {fill:#D6D6D6;fill-rule:nonzero}
    .fil1 {fill:white;fill-rule:nonzero}
    .fil0 {fill:url(#id0)}
   ]]>
  </style>
  <linearGradient id="id0" gradientUnits="userSpaceOnUse" x1="13.4" y1="15.93" x2="7.79" y2="0.62">
   <stop offset="0" style="stop-opacity:1; stop-color:#0048FF"/>
   <stop offset="1" style="stop-opacity:1; stop-color:#6BB0FF"/>
  </linearGradient>
 </defs>
 <g id="Layer_x0020_1">
  <metadata id="CorelCorpID_0Corel-Layer"/>
  <path class="fil0" d="M4.98 16.55l-0.86 0 -0.86 0 -2.49 0c-0.43,0 -0.78,-0.36 -0.78,-0.81l0 -2.87c0,-0.44 0.35,-0.81 0.78,-0.81l2.49 0 0.86 0 4.91 0c0,-2.47 1.82,-4.49 4.06,-4.49l0.39 0 0 -0 3.72 0c0.43,0 0.78,0.36 0.78,0.81l0 2.87c0,0.44 -0.35,0.81 -0.78,0.81l-0.09 0 -0.16 0 -0.17 0 -0.18 0 -7.57 0c0,2.47 -1.82,4.49 -4.06,4.49zm8.87 -16.55l3.35 0c0.43,0 0.78,0.36 0.78,0.81l0 2.87c0,0.44 -0.35,0.81 -0.78,0.81l-0.09 0 -0.16 0 -0.17 0 -0.18 0 -7.57 0c0,2.47 -1.83,4.49 -4.06,4.49l-0.86 0 -0.86 0 -2.49 0c-0.43,0 -0.78,-0.36 -0.78,-0.81l0 -2.87c0,-0.44 0.35,-0.81 0.78,-0.81l2.49 0 0.86 0 4.91 0c0,-2.47 1.82,-4.49 4.05,-4.49l0.39 0 0.38 0zm0 12.06l0.45 0 0.42 0 0.39 0 0.36 0 0.34 0 0.31 0 0.28 0 0.25 0 0.23 0 0.2 0 0.11 0m-3.35 -7.58l0.45 0 0.42 0 0.39 0 0.36 0 0.34 0 0.31 0 0.28 0 0.25 0 0.23 0 0.2 0 0.11 0"/>
  <path class="fil1" d="M25.74 8.55c0.29,0 0.52,-0.08 0.72,-0.24 0.19,-0.16 0.29,-0.36 0.29,-0.59 0,-0.19 -0.06,-0.35 -0.19,-0.48 -0.13,-0.13 -0.29,-0.25 -0.49,-0.36 -0.2,-0.1 -0.42,-0.21 -0.66,-0.31 -0.23,-0.1 -0.47,-0.21 -0.71,-0.33 -0.24,-0.12 -0.45,-0.26 -0.65,-0.42 -0.2,-0.16 -0.36,-0.35 -0.48,-0.58 -0.12,-0.23 -0.18,-0.5 -0.18,-0.82 0,-0.39 0.1,-0.74 0.29,-1.03 0.19,-0.29 0.47,-0.52 0.82,-0.69 0.35,-0.16 0.76,-0.25 1.23,-0.25 0.75,0 1.46,0.19 2.14,0.57l-0.58 1.21c-0.3,-0.19 -0.59,-0.33 -0.87,-0.4 -0.28,-0.07 -0.51,-0.1 -0.69,-0.1 -0.28,0 -0.5,0.06 -0.66,0.18 -0.17,0.12 -0.25,0.28 -0.25,0.47 0,0.17 0.06,0.31 0.18,0.43 0.12,0.12 0.27,0.23 0.47,0.32 0.19,0.09 0.4,0.19 0.63,0.29 0.24,0.1 0.48,0.21 0.72,0.33 0.24,0.12 0.47,0.26 0.68,0.43 0.21,0.17 0.37,0.37 0.5,0.6 0.13,0.24 0.19,0.52 0.19,0.85 0,0.43 -0.11,0.8 -0.32,1.13 -0.21,0.33 -0.51,0.59 -0.88,0.78 -0.37,0.19 -0.8,0.28 -1.29,0.28 -0.45,0 -0.9,-0.08 -1.35,-0.24 -0.45,-0.16 -0.86,-0.39 -1.24,-0.69l0.67 -1.15c0.17,0.15 0.37,0.29 0.6,0.42 0.22,0.12 0.46,0.22 0.7,0.29 0.24,0.07 0.46,0.1 0.67,0.1zm2.92 -3.59l0.77 0 0 -1.18 1.34 0 0 1.18 1.13 0 0 1.18 -1.13 0 0 1.74c0,0.22 0.07,0.4 0.21,0.53 0.14,0.13 0.32,0.19 0.54,0.19 0.16,0 0.33,-0.04 0.5,-0.11l0 1.11c-0.29,0.12 -0.58,0.18 -0.87,0.18 -0.55,0 -0.97,-0.15 -1.27,-0.45 -0.29,-0.3 -0.44,-0.73 -0.44,-1.29l0 -1.89 -0.77 0 0 -1.18zm4.22 4.72l0 -4.72 1.17 0 0.06 0.68c0.34,-0.51 0.8,-0.77 1.39,-0.77 0.2,0 0.41,0.03 0.62,0.09l-0.19 1.18c-0.18,-0.06 -0.36,-0.09 -0.53,-0.09 -0.36,0 -0.65,0.14 -0.87,0.4 -0.22,0.27 -0.33,0.65 -0.33,1.15l0 2.08 -1.34 0zm4.69 -1.96c0.08,0.26 0.24,0.47 0.46,0.64 0.22,0.16 0.49,0.25 0.79,0.25 0.32,0 0.59,-0.05 0.8,-0.16 0.21,-0.11 0.41,-0.24 0.58,-0.41l0.81 0.98c-0.36,0.29 -0.71,0.48 -1.07,0.59 -0.35,0.11 -0.69,0.16 -1.01,0.16 -0.51,0 -0.97,-0.11 -1.36,-0.32 -0.39,-0.21 -0.7,-0.51 -0.92,-0.88 -0.22,-0.37 -0.33,-0.8 -0.33,-1.27 0,-0.47 0.11,-0.89 0.32,-1.25 0.21,-0.37 0.51,-0.66 0.87,-0.87 0.37,-0.21 0.79,-0.32 1.26,-0.32 0.47,0 0.88,0.1 1.25,0.32 0.36,0.21 0.65,0.5 0.86,0.87 0.21,0.37 0.32,0.79 0.32,1.27l0 0.41 -3.62 0zm2.25 -0.76c-0.06,-0.28 -0.2,-0.5 -0.4,-0.67 -0.2,-0.17 -0.44,-0.25 -0.72,-0.25 -0.29,0 -0.53,0.09 -0.74,0.26 -0.21,0.17 -0.35,0.39 -0.41,0.67l2.27 0zm2.11 1.41c0,-0.31 0.09,-0.6 0.27,-0.84 0.18,-0.25 0.42,-0.44 0.74,-0.59 0.31,-0.15 0.67,-0.22 1.07,-0.22 0.13,0 0.26,0.01 0.4,0.02 0.14,0.01 0.28,0.04 0.42,0.06 -0.1,-0.51 -0.47,-0.77 -1.1,-0.77 -0.37,0 -0.75,0.14 -1.13,0.43l-0.46 -1.15c0.32,-0.16 0.64,-0.27 0.95,-0.35 0.31,-0.08 0.61,-0.11 0.89,-0.11 0.45,0 0.84,0.09 1.17,0.26 0.33,0.17 0.58,0.41 0.77,0.73 0.18,0.31 0.27,0.68 0.27,1.1l0 2.73 -1.12 0 -0.09 -0.51c-0.17,0.19 -0.38,0.33 -0.63,0.44 -0.25,0.11 -0.52,0.16 -0.82,0.16 -0.47,0 -0.86,-0.13 -1.15,-0.39 -0.3,-0.26 -0.45,-0.59 -0.45,-1.01zm1.34 -0.31c0,0.16 0.06,0.28 0.18,0.38 0.12,0.1 0.28,0.14 0.47,0.14 0.27,0 0.49,-0.08 0.67,-0.25 0.18,-0.16 0.27,-0.37 0.27,-0.6l0 -0.1c-0.12,-0.04 -0.24,-0.07 -0.37,-0.09 -0.13,-0.02 -0.26,-0.03 -0.39,-0.03 -0.26,0 -0.47,0.05 -0.61,0.14 -0.15,0.1 -0.22,0.23 -0.22,0.4zm5.38 1.61l-1.34 0 0 -4.72 1.26 0 0.03 0.5c0.33,-0.4 0.77,-0.59 1.33,-0.59 0.71,0 1.22,0.31 1.52,0.93 0.16,-0.3 0.36,-0.53 0.63,-0.69 0.26,-0.16 0.57,-0.24 0.93,-0.24 0.56,0 1,0.2 1.31,0.6 0.31,0.4 0.47,0.96 0.47,1.67l0 2.54 -1.34 0 0 -2.54c0,-0.37 -0.08,-0.64 -0.25,-0.82 -0.17,-0.18 -0.37,-0.27 -0.61,-0.27 -0.24,0 -0.45,0.1 -0.62,0.28 -0.17,0.19 -0.26,0.47 -0.26,0.84l0 2.51 -1.34 0 0 -2.54c0,-0.37 -0.08,-0.64 -0.25,-0.82 -0.17,-0.18 -0.37,-0.27 -0.61,-0.27 -0.24,0 -0.45,0.1 -0.62,0.28 -0.17,0.19 -0.26,0.47 -0.26,0.84l0 2.51z"/>
  <path class="fil1" d="M55.99 2.6l3.99 0 0 0.75 -3.18 0 0 2.35 3 0 0 0.75 -3 0 0 3.22 -0.81 0 0 -7.08zm6.13 -0.19l0 7.27 -0.79 0 0 -7.27 0.79 0zm1.16 4.91c0,-0.46 0.1,-0.86 0.31,-1.22 0.21,-0.36 0.5,-0.64 0.86,-0.84 0.36,-0.2 0.78,-0.31 1.24,-0.31 0.46,0 0.88,0.1 1.24,0.31 0.36,0.2 0.65,0.49 0.86,0.84 0.21,0.36 0.31,0.76 0.31,1.22 0,0.46 -0.1,0.86 -0.31,1.22 -0.21,0.36 -0.5,0.64 -0.86,0.84 -0.36,0.2 -0.78,0.31 -1.24,0.31 -0.46,0 -0.88,-0.1 -1.24,-0.31 -0.36,-0.2 -0.65,-0.49 -0.86,-0.84 -0.21,-0.36 -0.31,-0.76 -0.31,-1.22zm0.79 0c0,0.32 0.07,0.6 0.21,0.85 0.14,0.25 0.33,0.45 0.58,0.59 0.24,0.14 0.52,0.21 0.83,0.21 0.31,0 0.59,-0.07 0.83,-0.21 0.25,-0.14 0.44,-0.34 0.58,-0.59 0.14,-0.25 0.21,-0.54 0.21,-0.85 0,-0.32 -0.07,-0.61 -0.21,-0.86 -0.14,-0.25 -0.33,-0.45 -0.58,-0.59 -0.24,-0.14 -0.52,-0.22 -0.83,-0.22 -0.31,0 -0.59,0.07 -0.83,0.22 -0.25,0.14 -0.44,0.34 -0.58,0.59 -0.14,0.25 -0.21,0.54 -0.21,0.86zm4.73 -2.36l0.81 0 1.16 3.53 1.16 -3.53 0.82 0 1.17 3.56 1.17 -3.56 0.78 0 -1.56 4.72 -0.78 0 0.01 -0.03 -1.2 -3.58 -1.18 3.55 0.02 0.06 -0.81 0 -1.55 -4.72z"/>
  <path class="fil2" d="M47.27 11.51l0.3 0 0 1.21c0.08,-0.09 0.18,-0.16 0.29,-0.22 0.11,-0.05 0.24,-0.08 0.37,-0.08 0.18,0 0.33,0.04 0.47,0.12 0.14,0.08 0.25,0.19 0.32,0.33 0.08,0.14 0.12,0.3 0.12,0.47 0,0.18 -0.04,0.34 -0.12,0.47 -0.08,0.14 -0.19,0.25 -0.32,0.33 -0.14,0.08 -0.29,0.12 -0.47,0.12 -0.14,0 -0.26,-0.03 -0.38,-0.08 -0.12,-0.05 -0.21,-0.12 -0.3,-0.21l-0.02 0.29 -0.27 0 0 -2.75zm0.93 2.48c0.12,0 0.23,-0.03 0.32,-0.08 0.09,-0.06 0.17,-0.13 0.22,-0.23 0.05,-0.1 0.08,-0.21 0.08,-0.33 0,-0.12 -0.03,-0.24 -0.08,-0.33 -0.05,-0.1 -0.13,-0.17 -0.22,-0.23 -0.09,-0.06 -0.2,-0.08 -0.32,-0.08 -0.12,0 -0.23,0.03 -0.33,0.08 -0.1,0.06 -0.17,0.13 -0.22,0.23 -0.05,0.1 -0.08,0.21 -0.08,0.33 0,0.12 0.03,0.23 0.08,0.33 0.05,0.1 0.13,0.18 0.22,0.23 0.1,0.06 0.2,0.08 0.33,0.08zm1.16 -1.56l0.32 0 0.48 1.19c0.02,0.05 0.04,0.1 0.06,0.16 0.02,0.06 0.04,0.11 0.05,0.16l0.01 0c0.01,-0.05 0.03,-0.1 0.05,-0.16 0.02,-0.05 0.04,-0.11 0.06,-0.17l0.48 -1.19 0.31 0 -1.12 2.75 -0.31 0 0.37 -0.9 -0.77 -1.85zm3.06 1.84l0 -2.76 0.99 0c0.29,0 0.52,0.06 0.68,0.18 0.16,0.12 0.24,0.29 0.24,0.52 0,0.15 -0.03,0.27 -0.1,0.37 -0.07,0.1 -0.16,0.18 -0.29,0.24 0.16,0.05 0.28,0.14 0.37,0.26 0.08,0.12 0.13,0.26 0.13,0.43 0,0.25 -0.09,0.44 -0.26,0.57 -0.17,0.13 -0.42,0.2 -0.73,0.2l-1.02 0zm0.97 -2.26l-0.42 0 0 0.61 0.42 0c0.12,0 0.21,-0.03 0.28,-0.08 0.07,-0.05 0.1,-0.13 0.1,-0.23 0,-0.1 -0.03,-0.17 -0.1,-0.23 -0.07,-0.05 -0.16,-0.08 -0.28,-0.08zm-0.42 1.76l0.45 0c0.14,0 0.25,-0.03 0.33,-0.09 0.08,-0.06 0.12,-0.15 0.12,-0.27 0,-0.12 -0.04,-0.21 -0.12,-0.27 -0.08,-0.06 -0.19,-0.09 -0.33,-0.09l-0.45 0 0 0.72zm1.77 -0.01c0,-0.12 0.03,-0.23 0.1,-0.33 0.07,-0.1 0.16,-0.17 0.29,-0.23 0.12,-0.06 0.26,-0.08 0.42,-0.08 0.05,0 0.1,0 0.16,0.01 0.05,0.01 0.11,0.01 0.17,0.02 -0.04,-0.2 -0.18,-0.3 -0.43,-0.3 -0.15,0 -0.29,0.06 -0.44,0.17l-0.18 -0.45c0.12,-0.06 0.25,-0.11 0.37,-0.14 0.12,-0.03 0.24,-0.04 0.35,-0.04 0.17,0 0.33,0.03 0.45,0.1 0.13,0.07 0.23,0.16 0.3,0.28 0.07,0.12 0.11,0.26 0.11,0.43l0 1.06 -0.44 0 -0.03 -0.2c-0.07,0.07 -0.15,0.13 -0.25,0.17 -0.1,0.04 -0.2,0.06 -0.32,0.06 -0.18,0 -0.33,-0.05 -0.45,-0.15 -0.12,-0.1 -0.17,-0.23 -0.17,-0.39zm0.52 -0.12c0,0.06 0.02,0.11 0.07,0.15 0.05,0.04 0.11,0.06 0.18,0.06 0.1,0 0.19,-0.03 0.26,-0.1 0.07,-0.06 0.11,-0.14 0.11,-0.24l0 -0.04c-0.05,-0.01 -0.09,-0.03 -0.14,-0.03 -0.05,-0.01 -0.1,-0.01 -0.15,-0.01 -0.1,0 -0.18,0.02 -0.24,0.06 -0.06,0.04 -0.09,0.09 -0.09,0.16zm1.57 0.63l0 -1.84 0.45 0 0.02 0.22c0.07,-0.08 0.16,-0.15 0.26,-0.19 0.1,-0.05 0.21,-0.07 0.33,-0.07 0.21,0 0.38,0.07 0.5,0.21 0.13,0.14 0.19,0.34 0.19,0.59l0 1.07 -0.52 0 0 -0.97c0,-0.3 -0.11,-0.45 -0.33,-0.45 -0.11,0 -0.21,0.04 -0.28,0.13 -0.07,0.08 -0.11,0.2 -0.11,0.36l0 0.93 -0.52 0zm2.94 -1.87c0.12,0 0.23,0.02 0.33,0.06 0.1,0.04 0.19,0.1 0.27,0.17l0.01 -0.2 0.49 0 0 1.62c0,0.24 -0.04,0.44 -0.13,0.62 -0.09,0.17 -0.21,0.31 -0.37,0.41 -0.16,0.1 -0.34,0.15 -0.55,0.15 -0.12,0 -0.24,-0.02 -0.37,-0.05 -0.13,-0.03 -0.26,-0.08 -0.4,-0.15l0.16 -0.44c0.06,0.05 0.14,0.1 0.25,0.13 0.11,0.04 0.21,0.05 0.31,0.05 0.18,0 0.32,-0.06 0.43,-0.18 0.1,-0.12 0.16,-0.29 0.16,-0.49l0 -0c-0.08,0.07 -0.16,0.12 -0.26,0.16 -0.1,0.04 -0.2,0.06 -0.32,0.06 -0.17,0 -0.32,-0.04 -0.45,-0.12 -0.13,-0.08 -0.24,-0.2 -0.31,-0.34 -0.08,-0.14 -0.11,-0.31 -0.11,-0.49 0,-0.18 0.04,-0.35 0.11,-0.49 0.08,-0.14 0.18,-0.26 0.31,-0.34 0.13,-0.08 0.28,-0.12 0.45,-0.12zm0.12 1.45c0.13,0 0.24,-0.05 0.33,-0.14 0.09,-0.09 0.13,-0.21 0.13,-0.35 0,-0.14 -0.04,-0.26 -0.13,-0.35 -0.09,-0.09 -0.2,-0.14 -0.33,-0.14 -0.13,0 -0.24,0.05 -0.33,0.14 -0.09,0.09 -0.13,0.21 -0.13,0.35 0,0.14 0.04,0.26 0.13,0.35 0.09,0.09 0.2,0.14 0.33,0.14zm2.06 -1.84l0 -0.5 2.1 0 0 0.5 -0.77 0 0 2.26 -0.55 0 0 -2.26 -0.77 0zm2.1 0.42l0.52 0 0 0.98c0,0.14 0.03,0.24 0.09,0.32 0.06,0.08 0.14,0.11 0.24,0.11 0.11,0 0.2,-0.04 0.28,-0.12 0.07,-0.08 0.11,-0.18 0.11,-0.31l0 0 0 -0.98 0.52 0 0 1.84 -0.45 0 -0.02 -0.23c-0.07,0.08 -0.16,0.15 -0.25,0.19 -0.1,0.05 -0.21,0.07 -0.33,0.07 -0.23,0 -0.4,-0.08 -0.52,-0.23 -0.12,-0.15 -0.18,-0.37 -0.18,-0.66l0 -0.98zm2.11 -0l0.3 0 0 -0.46 0.52 0 0 0.46 0.44 0 0 0.46 -0.44 0 0 0.68c0,0.09 0.03,0.15 0.08,0.2 0.05,0.05 0.12,0.07 0.21,0.07 0.06,0 0.13,-0.01 0.19,-0.04l0 0.43c-0.11,0.05 -0.23,0.07 -0.34,0.07 -0.21,0 -0.38,-0.06 -0.49,-0.18 -0.11,-0.12 -0.17,-0.28 -0.17,-0.5l0 -0.74 -0.3 0 0 -0.46zm1.57 0.92c0,-0.18 0.04,-0.35 0.12,-0.49 0.08,-0.14 0.2,-0.26 0.34,-0.34 0.14,-0.08 0.31,-0.12 0.5,-0.12 0.19,0 0.35,0.04 0.49,0.12 0.14,0.08 0.26,0.2 0.34,0.34 0.08,0.14 0.13,0.31 0.13,0.49 0,0.18 -0.04,0.35 -0.13,0.49 -0.08,0.14 -0.2,0.26 -0.34,0.34 -0.14,0.08 -0.31,0.12 -0.49,0.12 -0.19,0 -0.35,-0.04 -0.5,-0.12 -0.14,-0.08 -0.26,-0.2 -0.34,-0.34 -0.08,-0.14 -0.12,-0.31 -0.12,-0.49zm0.51 0c0,0.14 0.04,0.26 0.13,0.35 0.09,0.09 0.2,0.14 0.33,0.14 0.13,0 0.24,-0.05 0.33,-0.14 0.09,-0.09 0.13,-0.21 0.13,-0.35 0,-0.14 -0.04,-0.26 -0.13,-0.35 -0.09,-0.09 -0.2,-0.14 -0.33,-0.14 -0.13,0 -0.24,0.05 -0.33,0.14 -0.09,0.09 -0.13,0.21 -0.13,0.35zm1.76 0.92l0 -1.84 0.45 0 0.03 0.26c0.13,-0.2 0.31,-0.3 0.54,-0.3 0.08,0 0.16,0.01 0.24,0.04l-0.07 0.46c-0.07,-0.02 -0.14,-0.04 -0.21,-0.04 -0.14,0 -0.25,0.05 -0.34,0.16 -0.09,0.1 -0.13,0.25 -0.13,0.45l0 0.81 -0.52 0zm1.4 -2.46c0,-0.09 0.03,-0.16 0.08,-0.21 0.05,-0.05 0.12,-0.08 0.21,-0.08 0.09,0 0.16,0.03 0.21,0.08 0.05,0.05 0.08,0.13 0.08,0.21 0,0.09 -0.03,0.16 -0.08,0.21 -0.05,0.05 -0.12,0.08 -0.21,0.08 -0.09,0 -0.16,-0.03 -0.21,-0.08 -0.05,-0.05 -0.08,-0.12 -0.08,-0.21zm0.03 2.46l0 -1.84 0.52 0 0 1.84 -0.52 0zm0.9 -0.51c0,-0.12 0.03,-0.23 0.1,-0.33 0.07,-0.1 0.16,-0.17 0.29,-0.23 0.12,-0.06 0.26,-0.08 0.42,-0.08 0.05,0 0.1,0 0.16,0.01 0.05,0.01 0.11,0.01 0.17,0.02 -0.04,-0.2 -0.18,-0.3 -0.43,-0.3 -0.15,0 -0.29,0.06 -0.44,0.17l-0.18 -0.45c0.13,-0.06 0.25,-0.11 0.37,-0.14 0.12,-0.03 0.24,-0.04 0.35,-0.04 0.17,0 0.33,0.03 0.45,0.1 0.13,0.07 0.23,0.16 0.3,0.28 0.07,0.12 0.11,0.26 0.11,0.43l0 1.06 -0.44 0 -0.03 -0.2c-0.07,0.07 -0.15,0.13 -0.25,0.17 -0.1,0.04 -0.2,0.06 -0.32,0.06 -0.18,0 -0.33,-0.05 -0.45,-0.15 -0.12,-0.1 -0.17,-0.23 -0.17,-0.39zm0.52 -0.12c0,0.06 0.02,0.11 0.07,0.15 0.05,0.04 0.11,0.06 0.18,0.06 0.1,0 0.19,-0.03 0.26,-0.1 0.07,-0.06 0.11,-0.14 0.11,-0.24l0 -0.04c-0.04,-0.01 -0.09,-0.03 -0.14,-0.03 -0.05,-0.01 -0.1,-0.01 -0.15,-0.01 -0.1,0 -0.18,0.02 -0.24,0.06 -0.06,0.04 -0.09,0.09 -0.09,0.16zm2.09 -2.2l0 2.83 -0.52 0 0 -2.83 0.52 0z"/>
 </g>
</svg>
