<?xml version="1.0" encoding="UTF-8"?>
<!DOCTYPE svg PUBLIC "-//W3C//DTD SVG 1.1//EN" "http://www.w3.org/Graphics/SVG/1.1/DTD/svg11.dtd">
<!-- Creator: CorelDRAW -->
<svg xmlns="http://www.w3.org/2000/svg" xml:space="preserve" width="52.4093mm" height="10.2791mm" version="1.1" style="shape-rendering:geometricPrecision; text-rendering:geometricPrecision; image-rendering:optimizeQuality; fill-rule:evenodd; clip-rule:evenodd"
viewBox="0 0 5401.83 1059.47"
 xmlns:xlink="http://www.w3.org/1999/xlink"
 xmlns:xodm="http://www.corel.com/coreldraw/odm/2003">
 <defs>
  <style type="text/css">
   <![CDATA[
    .fil2 {fill:#D6D6D6;fill-rule:nonzero}
    .fil1 {fill:white;fill-rule:nonzero}
    .fil0 {fill:url(#id0)}
   ]]>
  </style>
  <linearGradient id="id0" gradientUnits="userSpaceOnUse" x1="833.49" y1="960.24" x2="449.4" y2="0.01">
   <stop offset="0" style="stop-opacity:1; stop-color:#0048FF"/>
   <stop offset="1" style="stop-opacity:1; stop-color:#6BB0FF"/>
  </linearGradient>
 </defs>
 <g id="Layer_x0020_1">
  <metadata id="CorelCorpID_0Corel-Layer"/>
  <path class="fil0" d="M320.08 1059.47l-55.06 0 -55.05 0 -159.4 0c-27.53,0 -49.94,-23.05 -49.94,-51.84l0 -183.73c0,-28.17 22.41,-51.84 49.94,-51.84l159.4 0 55.05 0 314.32 0c0,-158.12 116.51,-287.43 259.9,-287.43l24.97 0 0 0 238.13 0c27.53,0 49.94,23.06 49.94,51.85l0 183.72c0,28.17 -22.4,51.85 -49.94,51.85l-5.76 0 -10.23 0 -10.88 0 -11.52 0 -484.59 0c0,158.12 -116.51,287.42 -259.9,287.42l0.63 0zm567.81 -1059.47l214.45 0c27.53,0 49.94,23.05 49.94,51.85l0 183.72c0,28.17 -22.4,51.85 -49.94,51.85l-5.75 0 -10.25 0 -10.88 0 -11.52 0 -484.59 0c0,158.12 -117.15,287.42 -259.9,287.42l-55.06 0 -55.05 0 -159.4 0c-27.53,0 -49.94,-23.05 -49.94,-51.84l0 -183.73c0,-28.17 22.41,-51.84 49.94,-51.84l159.4 0 55.05 0 314.32 0c0,-158.12 116.51,-287.43 259.26,-287.43l24.97 0 24.32 0 0.63 0zm0 772.04l28.81 0 26.89 0 24.96 0 23.05 0 21.77 0 19.84 0 17.93 0 16 0 14.73 0 12.8 0 7.04 0m-214.46 -485.24l28.81 0 26.89 0 24.96 0 23.05 0 21.77 0 19.84 0 17.93 0 16 0 14.73 0 12.8 0 7.04 0m-213.82 0l0 0 0 0z"/>
  <g id="_2548061071264">
   <path class="fil1" d="M1726.83 534.26c21.26,0 38.13,-5.86 52.78,-17.59 13.92,-11.73 21.26,-26.4 21.26,-43.25 0,-13.92 -4.4,-25.65 -13.92,-35.19 -9.53,-9.53 -21.26,-18.33 -35.92,-26.4 -14.67,-7.33 -30.79,-15.4 -48.38,-22.73 -16.86,-7.33 -34.46,-15.4 -52.05,-24.19 -17.59,-8.8 -32.99,-19.06 -47.65,-30.79 -14.67,-11.73 -26.4,-25.65 -35.19,-42.52 -8.8,-16.86 -13.19,-36.65 -13.19,-60.11 0,-28.59 7.33,-54.25 21.26,-75.51 13.92,-21.26 34.46,-38.13 60.11,-50.59 25.65,-11.73 55.72,-18.33 90.17,-18.33 54.98,0 107.03,13.92 156.88,41.78l-42.52 88.7c-22,-13.92 -43.25,-24.19 -63.78,-29.32 -20.53,-5.13 -37.38,-7.33 -50.59,-7.33 -20.53,0 -36.65,4.4 -48.38,13.19 -12.46,8.8 -18.33,20.53 -18.33,34.46 0,12.46 4.4,22.73 13.19,31.52 8.8,8.8 19.79,16.86 34.46,23.46 13.92,6.6 29.32,13.92 46.19,21.26 17.59,7.33 35.19,15.4 52.78,24.19 17.59,8.8 34.46,19.06 49.86,31.52 15.4,12.46 27.13,27.13 36.65,43.99 9.53,17.59 13.92,38.13 13.92,62.32 0,31.52 -8.06,58.65 -23.46,82.84 -15.4,24.19 -37.38,43.25 -64.51,57.18 -27.13,13.92 -58.65,20.53 -94.57,20.53 -32.99,0 -65.98,-5.86 -98.97,-17.59 -32.99,-11.73 -63.05,-28.59 -90.91,-50.59l49.11 -84.3c12.46,11 27.13,21.26 43.99,30.79 16.13,8.8 33.72,16.13 51.32,21.26 17.59,5.13 33.72,7.33 49.11,7.33l-0.74 -0.01zm214.06 -263.18l56.45 0 0 -86.51 98.24 0 0 86.51 82.84 0 0 86.51 -82.84 0 0 127.56c0,16.13 5.13,29.32 15.4,38.86 10.27,9.53 23.46,13.92 39.59,13.92 11.73,0 24.19,-2.94 36.65,-8.06l0 81.37c-21.26,8.8 -42.52,13.19 -63.78,13.19 -40.32,0 -71.11,-11 -93.1,-32.99 -21.26,-22 -32.26,-53.51 -32.26,-94.57l0 -138.56 -56.45 0 0 -86.51 -0.73 -0.73zm309.38 346.02l0 -346.02 85.77 0 4.4 49.86c24.92,-37.38 58.65,-56.45 101.9,-56.45 14.67,0 30.06,2.2 45.45,6.6l-13.92 86.51c-13.19,-4.4 -26.4,-6.6 -38.86,-6.6 -26.4,0 -47.65,10.27 -63.78,29.32 -16.13,19.79 -24.19,47.65 -24.19,84.3l0 152.48 -98.24 0 1.46 0zm343.81 -143.68c5.86,19.06 17.59,34.46 33.72,46.92 16.13,11.73 35.92,18.33 57.92,18.33 23.46,0 43.25,-3.67 58.65,-11.73 15.4,-8.06 30.06,-17.59 42.52,-30.06l59.38 71.84c-26.4,21.26 -52.05,35.19 -78.44,43.25 -25.65,8.06 -50.59,11.73 -74.05,11.73 -37.38,0 -71.11,-8.06 -99.7,-23.46 -28.59,-15.4 -51.32,-37.38 -67.45,-64.51 -16.13,-27.13 -24.19,-58.65 -24.19,-93.1 0,-34.46 8.06,-65.24 23.46,-91.64 15.4,-27.13 37.38,-48.38 63.78,-63.78 27.13,-15.4 57.92,-23.46 92.37,-23.46 34.46,0 64.51,7.33 91.64,23.46 26.4,15.4 47.65,36.65 63.05,63.78 15.4,27.13 23.46,57.92 23.46,93.1l0 30.06 -265.37 0 -0.74 -0.72zm164.95 -55.72c-4.4,-20.53 -14.67,-36.65 -29.32,-49.11 -14.67,-12.46 -32.26,-18.33 -52.78,-18.33 -21.26,0 -38.86,6.6 -54.25,19.06 -15.4,12.46 -25.65,28.59 -30.06,49.11l166.42 0 -0.01 -0.73zm154.68 103.37c0,-22.73 6.6,-43.99 19.79,-61.58 13.19,-18.33 30.79,-32.26 54.25,-43.25 22.73,-11 49.11,-16.13 78.44,-16.13 9.53,0 19.06,0.73 29.32,1.46 10.27,0.73 20.53,2.94 30.79,4.4 -7.33,-37.38 -34.46,-56.45 -80.64,-56.45 -27.13,0 -54.98,10.27 -82.84,31.52l-33.72 -84.3c23.46,-11.73 46.92,-19.79 69.64,-25.65 22.73,-5.86 44.72,-8.06 65.24,-8.06 32.99,0 61.58,6.6 85.77,19.06 24.19,12.46 42.52,30.06 56.45,53.51 13.19,22.73 19.79,49.86 19.79,80.64l0 200.13 -82.11 0 -6.6 -37.38c-12.46,13.92 -27.86,24.19 -46.19,32.26 -18.33,8.06 -38.13,11.73 -60.11,11.73 -34.46,0 -63.05,-9.53 -84.3,-28.59 -22,-19.06 -32.99,-43.25 -32.99,-74.05l0.01 0.73zm98.24 -22.73c0,11.73 4.4,20.53 13.19,27.86 8.8,7.33 20.53,10.27 34.46,10.27 19.79,0 35.92,-5.86 49.11,-18.33 13.19,-11.73 19.79,-27.13 19.79,-43.99l0 -7.33c-8.8,-2.94 -17.59,-5.13 -27.13,-6.6 -9.53,-1.46 -19.06,-2.2 -28.59,-2.2 -19.06,0 -34.46,3.67 -44.72,10.27 -11,7.33 -16.13,16.86 -16.13,29.32l0.02 0.72zm394.41 118.03l-98.24 0 0 -346.02 92.37 0 2.2 36.65c24.19,-29.32 56.45,-43.25 97.5,-43.25 52.05,0 89.43,22.73 111.43,68.18 11.73,-22 26.4,-38.86 46.19,-50.59 19.06,-11.73 41.78,-17.59 68.18,-17.59 41.05,0 73.31,14.67 96.03,43.99 22.73,29.32 34.46,70.38 34.46,122.43l0 186.21 -98.24 0 0 -186.21c0,-27.13 -5.86,-46.92 -18.33,-60.11 -12.46,-13.19 -27.13,-19.79 -44.72,-19.79 -17.59,0 -32.99,7.33 -45.45,20.53 -12.46,13.92 -19.06,34.46 -19.06,61.58l0 184.01 -98.24 0 0 -186.21c0,-27.13 -5.86,-46.92 -18.33,-60.11 -12.46,-13.19 -27.13,-19.79 -44.72,-19.79 -17.59,0 -32.99,7.33 -45.45,20.53 -12.46,13.92 -19.06,34.46 -19.06,61.58l0 184.01 1.47 -0.05z"/>
   <path class="fil1" d="M3944.43 98.07l292.5 0 0 54.98 -233.12 0 0 172.28 219.93 0 0 54.98 -219.93 0 0 236.05 -59.38 0 0 -519.03 0 0.74zm449.39 -13.92l0 532.95 -57.92 0 0 -532.95 57.92 0zm85.04 359.94c0,-33.72 7.33,-63.05 22.73,-89.43 15.4,-26.4 36.65,-46.92 63.05,-61.58 26.4,-14.67 57.18,-22.73 90.91,-22.73 33.72,0 64.51,7.33 90.91,22.73 26.4,14.67 47.65,35.92 63.05,61.58 15.4,26.4 22.73,55.72 22.73,89.43 0,33.72 -7.33,63.05 -22.73,89.43 -15.4,26.4 -36.65,46.92 -63.05,61.58 -26.4,14.67 -57.18,22.73 -90.91,22.73 -33.72,0 -64.51,-7.33 -90.91,-22.73 -26.4,-14.67 -47.65,-35.92 -63.05,-61.58 -15.4,-26.4 -22.73,-55.72 -22.73,-89.43zm57.92 0c0,23.46 5.13,43.99 15.4,62.32 10.27,18.33 24.19,32.99 42.52,43.25 17.59,10.27 38.13,15.4 60.84,15.4 22.73,0 43.25,-5.13 60.84,-15.4 18.33,-10.27 32.26,-24.92 42.52,-43.25 10.27,-18.33 15.4,-39.59 15.4,-62.32 0,-23.46 -5.13,-44.72 -15.4,-63.05 -10.27,-18.33 -24.19,-32.99 -42.52,-43.25 -17.59,-10.27 -38.13,-16.13 -60.84,-16.13 -22.73,0 -43.25,5.13 -60.84,16.13 -18.33,10.27 -32.26,24.92 -42.52,43.25 -10.27,18.33 -15.4,39.59 -15.4,63.05zm346.75 -173l59.38 0 85.04 258.78 85.04 -258.78 60.11 0 85.77 260.98 85.77 -260.98 57.18 0 -114.37 346.02 -57.18 0 0.73 -2.2 -87.97 -262.45 -86.51 260.25 1.46 4.4 -59.38 0 -113.62 -346.02 -1.47 -0.01z"/>
   <path class="fil2" d="M3305.17 751.26l22 0 0 88.7c5.86,-6.6 13.19,-11.73 21.26,-16.13 8.06,-3.67 17.59,-5.86 27.13,-5.86 13.19,0 24.19,2.94 34.46,8.8 10.27,5.86 18.33,13.92 23.46,24.19 5.86,10.27 8.8,22 8.8,34.46 0,13.19 -2.94,24.92 -8.8,34.46 -5.86,10.27 -13.92,18.33 -23.46,24.19 -10.27,5.86 -21.26,8.8 -34.46,8.8 -10.27,0 -19.06,-2.2 -27.86,-5.86 -8.8,-3.67 -15.4,-8.8 -22,-15.4l-1.46 21.26 -19.79 0 0 -201.61 0.72 0zm68.18 181.81c8.8,0 16.86,-2.2 23.46,-5.86 6.6,-4.4 12.46,-9.53 16.13,-16.86 3.67,-7.33 5.86,-15.4 5.86,-24.19 0,-8.8 -2.2,-17.59 -5.86,-24.19 -3.67,-7.33 -9.53,-12.46 -16.13,-16.86 -6.6,-4.4 -14.67,-5.86 -23.46,-5.86 -8.8,0 -16.86,2.2 -24.19,5.86 -7.33,4.4 -12.46,9.53 -16.13,16.86 -3.67,7.33 -5.86,15.4 -5.86,24.19 0,8.8 2.2,16.86 5.86,24.19 3.67,7.33 9.53,13.19 16.13,16.86 7.33,4.4 14.67,5.86 24.19,5.86zm85.04 -114.36l23.46 0 35.19 87.24c1.46,3.67 2.94,7.33 4.4,11.73 1.46,4.4 2.94,8.06 3.67,11.73l0.73 0c0.73,-3.67 2.2,-7.33 3.67,-11.73 1.46,-3.67 2.94,-8.06 4.4,-12.46l35.19 -87.24 22.73 0 -82.11 201.61 -22.73 0 27.13 -65.98 -56.45 -135.62 0.72 0.72zm224.32 134.89l0 -202.34 72.57 0c21.26,0 38.13,4.4 49.86,13.19 11.73,8.8 17.59,21.26 17.59,38.13 0,11 -2.2,19.79 -7.33,27.13 -5.13,7.33 -11.73,13.19 -21.26,17.59 11.73,3.67 20.53,10.27 27.13,19.06 5.86,8.8 9.53,19.06 9.53,31.52 0,18.33 -6.6,32.26 -19.06,41.78 -12.46,9.53 -30.79,14.67 -53.51,14.67l-74.78 0 -0.74 -0.73zm71.11 -165.69l-30.79 0 0 44.72 30.79 0c8.8,0 15.4,-2.2 20.53,-5.86 5.13,-3.67 7.33,-9.53 7.33,-16.86 0,-7.33 -2.2,-12.46 -7.33,-16.86 -5.13,-3.67 -11.73,-5.86 -20.53,-5.86l0 0.73zm-30.79 129.03l32.99 0c10.27,0 18.33,-2.2 24.19,-6.6 5.86,-4.4 8.8,-11 8.8,-19.79 0,-8.8 -2.94,-15.4 -8.8,-19.79 -5.86,-4.4 -13.92,-6.6 -24.19,-6.6l-32.99 0 0 52.78 0 -0.01zm129.75 -0.74c0,-8.8 2.2,-16.86 7.33,-24.19 5.13,-7.33 11.73,-12.46 21.26,-16.86 8.8,-4.4 19.06,-5.86 30.79,-5.86 3.67,0 7.33,0 11.73,0.73 3.67,0.73 8.06,0.73 12.46,1.46 -2.94,-14.67 -13.19,-22 -31.52,-22 -11,0 -21.26,4.4 -32.26,12.46l-13.19 -32.99c8.8,-4.4 18.33,-8.06 27.13,-10.27 8.8,-2.2 17.59,-2.94 25.65,-2.94 12.46,0 24.19,2.2 32.99,7.33 9.53,5.13 16.86,11.73 22,20.53 5.13,8.8 8.06,19.06 8.06,31.52l0 77.7 -32.26 0 -2.2 -14.67c-5.13,5.13 -11,9.53 -18.33,12.46 -7.33,2.94 -14.67,4.4 -23.46,4.4 -13.19,0 -24.19,-3.67 -32.99,-11 -8.8,-7.33 -12.46,-16.86 -12.46,-28.59l-0.73 0.76zm38.13 -8.79c0,4.4 1.46,8.06 5.13,11 3.67,2.94 8.06,4.4 13.19,4.4 7.33,0 13.92,-2.2 19.06,-7.33 5.13,-4.4 8.06,-10.27 8.06,-17.59l0 -2.94c-3.67,-0.73 -6.6,-2.2 -10.27,-2.2 -3.67,-0.73 -7.33,-0.73 -11,-0.73 -7.33,0 -13.19,1.46 -17.59,4.4 -4.4,2.94 -6.6,6.6 -6.6,11.73l0.01 -0.74zm115.1 46.19l0 -134.89 32.99 0 1.46 16.13c5.13,-5.86 11.73,-11 19.06,-13.92 7.33,-3.67 15.4,-5.13 24.19,-5.13 15.4,0 27.86,5.13 36.65,15.4 9.53,10.27 13.92,24.92 13.92,43.25l0 78.44 -38.13 0 0 -71.11c0,-22 -8.06,-32.99 -24.19,-32.99 -8.06,0 -15.4,2.94 -20.53,9.53 -5.13,5.86 -8.06,14.67 -8.06,26.4l0 68.18 -38.13 0 0.75 0.72zm215.52 -137.09c8.8,0 16.86,1.46 24.19,4.4 7.33,2.94 13.92,7.33 19.79,12.46l0.73 -14.67 35.92 0 0 118.76c0,17.59 -2.94,32.26 -9.53,45.45 -6.6,12.46 -15.4,22.73 -27.13,30.06 -11.73,7.33 -24.92,11 -40.32,11 -8.8,0 -17.59,-1.46 -27.13,-3.67 -9.53,-2.2 -19.06,-5.86 -29.32,-11l11.73 -32.26c4.4,3.67 10.27,7.33 18.33,9.53 8.06,2.94 15.4,3.67 22.73,3.67 13.19,0 23.46,-4.4 31.52,-13.19 7.33,-8.8 11.73,-21.26 11.73,-35.92l0 0c-5.86,5.13 -11.73,8.8 -19.06,11.73 -7.33,2.94 -14.67,4.4 -23.46,4.4 -12.46,0 -23.46,-2.94 -32.99,-8.8 -9.53,-5.86 -17.59,-14.67 -22.73,-24.92 -5.86,-10.27 -8.06,-22.73 -8.06,-35.92 0,-13.19 2.94,-25.65 8.06,-35.92 5.86,-10.27 13.19,-19.06 22.73,-24.92 9.53,-5.86 20.53,-8.8 32.99,-8.8l-0.71 -1.46zm8.8 106.31c9.53,0 17.59,-3.67 24.19,-10.27 6.6,-6.6 9.53,-15.4 9.53,-25.65 0,-10.27 -2.94,-19.06 -9.53,-25.65 -6.6,-6.6 -14.67,-10.27 -24.19,-10.27 -9.53,0 -17.59,3.67 -24.19,10.27 -6.6,6.6 -9.53,15.4 -9.53,25.65 0,10.27 2.94,19.06 9.53,25.65 6.6,6.6 14.67,10.27 24.19,10.27zm151.02 -134.9l0 -36.65 153.95 0 0 36.65 -56.45 0 0 165.67 -40.32 0 0 -165.67 -56.45 0 -0.72 0zm153.95 30.8l38.13 0 0 71.84c0,10.27 2.2,17.59 6.6,23.46 4.4,5.86 10.27,8.06 17.59,8.06 8.06,0 14.67,-2.94 20.53,-8.8 5.13,-5.86 8.06,-13.19 8.06,-22.73l0 0 0 -71.84 38.13 0 0 134.89 -32.99 0 -1.46 -16.86c-5.13,5.86 -11.73,11 -18.33,13.92 -7.33,3.67 -15.4,5.13 -24.19,5.13 -16.86,0 -29.32,-5.86 -38.13,-16.86 -8.8,-11 -13.19,-27.13 -13.19,-48.38l0 -71.84 -0.74 0.01zm154.69 0l22 0 0 -33.72 38.13 0 0 33.72 32.26 0 0 33.72 -32.26 0 0 49.86c0,6.6 2.2,11 5.86,14.67 3.67,3.67 8.8,5.13 15.4,5.13 4.4,0 9.53,-0.73 13.92,-2.94l0 31.52c-8.06,3.67 -16.86,5.13 -24.92,5.13 -15.4,0 -27.86,-4.4 -35.92,-13.19 -8.06,-8.8 -12.46,-20.53 -12.46,-36.65l0 -54.25 -22 0 0 -33.72 -0.01 0.72zm115.1 67.44c0,-13.19 2.94,-25.65 8.8,-35.92 5.86,-10.27 14.67,-19.06 24.92,-24.92 10.27,-5.86 22.73,-8.8 36.65,-8.8 13.92,0 25.65,2.94 35.92,8.8 10.27,5.86 19.06,14.67 24.92,24.92 5.86,10.27 9.53,22.73 9.53,35.92 0,13.19 -2.94,25.65 -9.53,35.92 -5.86,10.27 -14.67,19.06 -24.92,24.92 -10.27,5.86 -22.73,8.8 -35.92,8.8 -13.92,0 -25.65,-2.94 -36.65,-8.8 -10.27,-5.86 -19.06,-14.67 -24.92,-24.92 -5.86,-10.27 -8.8,-22.73 -8.8,-35.92zm37.38 0c0,10.27 2.94,19.06 9.53,25.65 6.6,6.6 14.67,10.27 24.19,10.27 9.53,0 17.59,-3.67 24.19,-10.27 6.6,-6.6 9.53,-15.4 9.53,-25.65 0,-10.27 -2.94,-19.06 -9.53,-25.65 -6.6,-6.6 -14.67,-10.27 -24.19,-10.27 -9.53,0 -17.59,3.67 -24.19,10.27 -6.6,6.6 -9.53,15.4 -9.53,25.65zm129.02 67.45l0 -134.89 32.99 0 2.2 19.06c9.53,-14.67 22.73,-22 39.59,-22 5.86,0 11.73,0.73 17.59,2.94l-5.13 33.72c-5.13,-1.46 -10.27,-2.94 -15.4,-2.94 -10.27,0 -18.33,3.67 -24.92,11.73 -6.6,7.33 -9.53,18.33 -9.53,32.99l0 59.38 -38.13 0 0.74 0zm102.64 -180.34c0,-6.6 2.2,-11.73 5.86,-15.4 3.67,-3.67 8.8,-5.86 15.4,-5.86 6.6,0 11.73,2.2 15.4,5.86 3.67,3.67 5.86,9.53 5.86,15.4 0,6.6 -2.2,11.73 -5.86,15.4 -3.67,3.67 -8.8,5.86 -15.4,5.86 -6.6,0 -11.73,-2.2 -15.4,-5.86 -3.67,-3.67 -5.86,-8.8 -5.86,-15.4zm2.2 180.34l0 -134.89 38.13 0 0 134.89 -38.13 0zm65.98 -37.39c0,-8.8 2.2,-16.86 7.33,-24.19 5.13,-7.33 11.73,-12.46 21.26,-16.86 8.8,-4.4 19.06,-5.86 30.79,-5.86 3.67,0 7.33,0 11.73,0.73 3.67,0.73 8.06,0.73 12.46,1.46 -2.94,-14.67 -13.19,-22 -31.52,-22 -11,0 -21.26,4.4 -32.26,12.46l-13.19 -32.99c9.53,-4.4 18.33,-8.06 27.13,-10.27 8.8,-2.2 17.59,-2.94 25.65,-2.94 12.46,0 24.19,2.2 32.99,7.33 9.53,5.13 16.86,11.73 22,20.53 5.13,8.8 8.06,19.06 8.06,31.52l0 77.7 -32.26 0 -2.2 -14.67c-5.13,5.13 -11,9.53 -18.33,12.46 -7.33,2.94 -14.67,4.4 -23.46,4.4 -13.19,0 -24.19,-3.67 -32.99,-11 -8.8,-7.33 -12.46,-16.86 -12.46,-28.59l-0.73 0.76zm38.13 -8.79c0,4.4 1.46,8.06 5.13,11 3.67,2.94 8.06,4.4 13.19,4.4 7.33,0 13.92,-2.2 19.06,-7.33 5.13,-4.4 8.06,-10.27 8.06,-17.59l0 -2.94c-2.94,-0.73 -6.6,-2.2 -10.27,-2.2 -3.67,-0.73 -7.33,-0.73 -11,-0.73 -7.33,0 -13.19,1.46 -17.59,4.4 -4.4,2.94 -6.6,6.6 -6.6,11.73l0.01 -0.74zm153.21 -161.28l0 207.47 -38.13 0 0 -207.47 38.13 0z"/>
  </g>
 </g>
</svg>
